<svg xmlns="http://www.w3.org/2000/svg" xmlns:xlink="http://www.w3.org/1999/xlink" id="Lager_1" version="1.1" viewBox="-265 388.9 64 64" xml:space="preserve" style="enable-background:new -265 388.9 64 64"><g><path fill="#1e90ff" d="M-210.6,410.9h-44.8c-0.9,0-1.6-0.7-1.6-1.6v-9.2c0-0.9,0.7-1.6,1.6-1.6h44.8c0.9,0,1.6,0.7,1.6,1.6v9.2 C-209,410.2-209.7,410.9-210.6,410.9z"/><path fill="#1e90ff" d="M-210.6,443.3h-11.8c-0.9,0-1.6-0.7-1.6-1.6v-25.6c0-0.9,0.7-1.6,1.6-1.6h11.8c0.9,0,1.6,0.7,1.6,1.6v25.6 C-209,442.6-209.7,443.3-210.6,443.3z"/><path fill="#1e90ff" d="M-229.6,443.3h-25.8c-0.9,0-1.6-0.7-1.6-1.6v-25.6c0-0.9,0.7-1.6,1.6-1.6h25.8c0.9,0,1.6,0.7,1.6,1.6v25.6 C-228,442.6-228.7,443.3-229.6,443.3z"/></g></svg>