<?xml version="1.0" ?><!DOCTYPE svg  PUBLIC '-//W3C//DTD SVG 1.1//EN'  'http://www.w3.org/Graphics/SVG/1.1/DTD/svg11.dtd'><svg enable-background="new 0 0 48 48" height="48px" id="Layer_3" version="1.1" viewBox="0 0 48 48" width="48px" xml:space="preserve" xmlns="http://www.w3.org/2000/svg" xmlns:xlink="http://www.w3.org/1999/xlink"><path d="M44,0H4C1.791,0,0,1.791,0,4v40c0,2.209,1.791,4,4,4h40c2.209,0,4-1.791,4-4V4C48,1.791,46.209,0,44,0z   M34.277,22.382L19.482,37.176l-0.008-0.009l-0.822,0.823l-0.012-0.011L18.63,37.99l-1.846-1.845l0.012-0.012L4.765,24.103  l3.403-3.403l10.495,10.495L30.876,18.98l-0.015-0.014l8.958-8.957l3.416,3.414L34.277,22.382z" fill="#241F20"/></svg>